Coordinates
version=1
nRows=19
nColumns=24
inDegrees=yes

Units are S.I. units (second, meters, Newtons, ...)
Angles are in degrees.

endheader
time	pelvis_tilt	pelvis_list	pelvis_rotation	pelvis_tx	pelvis_ty	pelvis_tz	hip_flexion_r	hip_adduction_r	hip_rotation_r	knee_angle_r	ankle_angle_r	subtalar_angle_r	mtp_angle_r	hip_flexion_l	hip_adduction_l	hip_rotation_l	knee_angle_l	ankle_angle_l	subtalar_angle_l	mtp_angle_l	lumbar_extension	lumbar_bending	lumbar_rotation
      4.55500000	    -15.76770071	      6.74171868	     -3.87690524	     -0.91150912	     -0.01096672	     -0.35123618	     33.37074023	     -7.27999080	     -0.76199242	    -61.42852702	     -2.42883852	     -4.66300950	     30.59836877	     23.14759577	      7.51372786	    -11.43694852	    -16.74930745	      3.31068388	     -1.25568712	      7.48381963	     20.29059996	     -7.25041518	     -8.53965938
      4.56000000	    -15.67362192	      6.43588152	     -3.60011544	     -0.90519467	     -0.00993481	     -0.35194565	     33.82720495	     -7.08969349	     -1.39785848	    -60.76544047	     -1.85615968	     -4.62733109	     28.81827857	     22.15553244	      7.49171173	    -10.91064816	    -15.99138863	      3.33793098	     -1.27352261	      7.25533588	     20.13584446	     -7.06016679	     -8.98457382
      4.56500000	    -15.77610925	      6.07604747	     -3.22812492	     -0.89897489	     -0.00915643	     -0.35270152	     34.45235786	     -6.89580322	     -2.14861858	    -59.95871249	     -1.37960519	     -4.89833996	     28.51269579	     21.43525144	      7.38054548	    -10.49018616	    -15.34075206	      3.41938055	     -1.03386769	      7.22934045	     20.17142578	     -6.84247465	     -9.54199984
      4.57000000	    -15.79317031	      5.71192757	     -2.88508152	     -0.89274847	     -0.00835637	     -0.35345960	     34.95931259	     -6.70798211	     -2.88779279	    -59.07503425	     -0.94132494	     -5.14862926	     28.06368637	     20.60034539	      7.26935405	     -9.99231610	    -14.64128497	      3.46128052	     -0.94788324	      7.13681140	     20.11826312	     -6.61016169	    -10.06400498
      4.57500000	    -15.69722073	      5.43135229	     -2.56027831	     -0.88650638	     -0.00757827	     -0.35419592	     35.35151403	     -6.62838249	     -3.61212875	    -58.19227852	     -0.49026860	     -5.28732861	     26.96642804	     19.61507008	      7.24800201	     -9.43664963	    -13.87692654	      3.46074565	     -0.96952062	      6.94445025	     19.95732416	     -6.46164883	    -10.50893517
      4.58000000	    -15.74585928	      5.09845428	     -2.23428476	     -0.88031475	     -0.00701897	     -0.35486647	     35.87059776	     -6.47696795	     -4.33470135	    -57.22000625	     -0.10389805	     -5.49571017	     26.12332196	     18.82937434	      7.12596197	     -8.98437060	    -13.19292192	      3.53572553	     -0.84369884	      6.82924831	     19.94781784	     -6.25715764	    -10.96549833
      4.58500000	    -15.78468010	      4.78900590	     -1.92959932	     -0.87415756	     -0.00653222	     -0.35548035	     36.37093290	     -6.33819379	     -5.01193451	    -56.18508909	      0.22569188	     -5.73661365	     25.48411622	     18.03431409	      7.00898911	     -8.54998844	    -12.49652040	      3.58656691	     -0.73639387	      6.71726979	     19.92873658	     -6.07790687	    -11.44629318
      4.59000000	    -15.81153556	      4.47940751	     -1.63498578	     -0.86799770	     -0.00612289	     -0.35610042	     36.83345242	     -6.21103499	     -5.69805013	    -55.08533520	      0.54188479	     -5.95193175	     24.83563753	     17.23447404	      6.88138111	     -8.12726116	    -11.81059988	      3.64615521	     -0.65742290	      6.59857754	     19.90060411	     -5.88722533	    -11.86720214
      4.59500000	    -15.81813920	      4.18592939	     -1.35042503	     -0.86186535	     -0.00580034	     -0.35667274	     37.25962104	     -6.10083660	     -6.37501116	    -53.94241876	      0.85919502	     -6.12536154	     24.08124054	     16.42372400	      6.75513296	     -7.71206600	    -11.13673595	      3.71128540	     -0.58912000	      6.47042384	     19.84877895	     -5.71441695	    -12.25695965
      4.60000000	    -15.84730534	      3.89799217	     -1.08864543	     -0.85574892	     -0.00558605	     -0.35722444	     37.69219289	     -5.98392227	     -7.01877622	    -52.73757038	      1.14507813	     -6.27561179	     23.37566972	     15.65963885	      6.61415266	     -7.35804205	    -10.49648990	      3.79391389	     -0.50490886	      6.36014110	     19.82689685	     -5.53399809	    -12.62275719
      4.60500000	    -15.82178462	      3.63890023	     -0.83471974	     -0.84966002	     -0.00545115	     -0.35772047	     38.04880428	     -5.89166352	     -7.64371351	    -51.50081237	      1.49478018	     -6.35050674	     22.42543271	     14.85269835	      6.49087974	     -6.98121812	     -9.88270050	      3.90896179	     -0.43928764	      6.23962451	     19.74240508	     -5.38666980	    -12.92617573
      4.61000000	    -15.90895222	      3.36010595	     -0.62383833	     -0.84359422	     -0.00547093	     -0.35813983	     38.51032274	     -5.74373841	     -8.21598068	    -50.17988757	      1.72910191	     -6.44232173	     21.90729720	     14.20766872	      6.31558297	     -6.77532799	     -9.32719504	      4.01698215	     -0.33914561	      6.16934847	     19.78370590	     -5.20847265	    -13.24834650
      4.61500000	    -15.84379918	      3.12365990	     -0.37599039	     -0.83755583	     -0.00547108	     -0.35859983	     38.78706888	     -5.67759136	     -8.82918847	    -48.84802267	      2.01513627	     -6.46113389	     21.00218832	     13.39758936	      6.19122513	     -6.41911960	     -8.77279179	      4.16076721	     -0.22981563	      6.08558430	     19.65299198	     -5.08121288	    -13.53034144
      4.62000000	    -15.91456319	      2.86434502	     -0.16523291	     -0.83154469	     -0.00564564	     -0.35899674	     39.18762524	     -5.54851596	     -9.38000437	    -47.42846161	      2.19828256	     -6.49600744	     20.47306059	     12.78865327	      6.01813477	     -6.22869744	     -8.30291173	      4.30120213	     -0.11098753	      6.03849405	     19.67064990	     -4.92128015	    -13.84543050
      4.62500000	    -15.91890058	      2.61720919	      0.03841202	     -0.82553773	     -0.00587145	     -0.35935775	     39.49539255	     -5.43182380	     -9.93349428	    -45.97410579	      2.39848097	     -6.47321218	     19.92626948	     12.12253582	      5.84878267	     -6.00449172	     -7.86089930	      4.49549680	     -0.00004017	      5.99860252	     19.61711871	     -4.77465492	    -14.12660367
      4.63000000	    -15.90768869	      2.37753942	      0.24514089	     -0.81957270	     -0.00614658	     -0.35969019	     39.75847396	     -5.31529930	    -10.46944022	    -44.46467564	      2.57756421	     -6.41416338	     19.34460697	     11.48025183	      5.67669223	     -5.77617875	     -7.48762396	      4.69553941	      0.11597661	      5.95888526	     19.54129570	     -4.63750455	    -14.36730411
      4.63500000	    -15.90772663	      2.14273742	      0.43498683	     -0.81362486	     -0.00652155	     -0.35997882	     40.01439372	     -5.18565693	    -10.97728597	    -42.91417076	      2.73066700	     -6.31317056	     18.80127052	     10.88413807	      5.49861237	     -5.57935612	     -7.17204338	      4.92978510	      0.21120008	      5.91619484	     19.47642241	     -4.50224175	    -14.60298161
      4.64000000	    -15.89987161	      1.91064598	      0.61992885	     -0.80768862	     -0.00696133	     -0.36024238	     40.23590081	     -5.04862669	    -11.46952423	    -41.31815166	      2.85598445	     -6.17676631	     18.28347451	     10.31500564	      5.31535599	     -5.38732021	     -6.92042459	      5.19148898	      0.29390384	      5.86266989	     19.40427910	     -4.36753930	    -14.83197193
      4.64500000	    -15.89460814	      1.68545861	      0.79590120	     -0.80177619	     -0.00747863	     -0.36045226	     40.43724736	     -4.90213352	    -11.93818203	    -39.68085213	      2.95042764	     -6.00622066	     17.80908165	      9.78468203	      5.12942594	     -5.20271999	     -6.73184470	      5.48058185	      0.35601483	      5.79398551	     19.33104241	     -4.24416223	    -15.04848727
